<svg width="30" height="23" viewBox="0 0 30 23" fill="none" xmlns="http://www.w3.org/2000/svg">
<path d="M2.04551 22.5053H6.8182V10.9144L0 5.80078V20.4599C0 21.59 0.915352 22.5055 2.04551 22.5055V22.5053Z" fill="#4285F4"/>
<path d="M23.1818 22.5053H27.9546C29.0847 22.5053 30 21.59 30 20.4599V5.80078L23.1818 10.9144V22.5053Z" fill="#34A853"/>
<path d="M23.1818 2.05095V10.9146L30 5.80095V3.0737C30 0.545851 27.1143 -0.8979 25.0909 0.619151L23.1818 2.05095Z" fill="#FBBC04"/>
<path fill-rule="evenodd" clip-rule="evenodd" d="M6.81818 10.9144V2.05078L15 8.18719L23.1818 2.05078V10.9144L15 17.0508L6.81818 10.9144Z" fill="#EA4335"/>
<path d="M0 3.0737V5.80095L6.8182 10.9146V2.05095L4.9091 0.619154C2.88574 -0.897897 0 0.545853 0 3.07359V3.0737Z" fill="#C5221F"/>
</svg>
