<svg width="40" height="40" viewBox="0 0 40 40" fill="none" xmlns="http://www.w3.org/2000/svg">
<path d="M33.6115 14.3537C35.9303 14.3537 37.8167 12.4621 37.8167 10.1377C37.5859 4.54446 29.6366 4.54606 29.4062 10.1377C29.4062 12.4621 31.2931 14.3537 33.6115 14.3537Z" fill="#464EB8"/>
<path d="M36.3837 15.4846H28.8777H28.8633C28.8613 15.4846 28.8621 15.4846 28.8597 15.4846C28.4105 15.4846 22.5377 15.4846 20.6445 15.4846V14.0126C20.9581 14.0682 21.2865 14.1054 21.6313 14.1198C21.6685 14.1202 21.7057 14.1174 21.7429 14.117C21.8861 14.1146 22.0281 14.1078 22.1681 14.0958C22.2161 14.0914 22.2637 14.0874 22.3109 14.0818C22.4721 14.0638 22.6313 14.0402 22.7881 14.0094C22.7977 14.0074 22.8081 14.0062 22.8177 14.0046C23.5609 13.853 24.2617 13.5566 24.8845 13.1366C25.4605 12.7482 25.9593 12.2554 26.3617 11.6906C26.4657 11.5542 26.5605 11.4118 26.6489 11.2662C26.6573 11.2518 26.6665 11.2382 26.6749 11.2234C26.7429 11.1086 26.8029 10.9898 26.8613 10.8698C26.8869 10.8178 26.9133 10.7658 26.9373 10.713C26.9989 10.575 27.0557 10.4346 27.1057 10.2918C27.1101 10.2798 27.1145 10.2682 27.1185 10.2566C27.6893 8.5734 27.4281 6.5942 26.4481 5.1142C26.1889 4.7346 25.8813 4.3918 25.5409 4.0846C25.4705 4.0234 25.4033 3.959 25.3293 3.9018C25.0437 3.6666 24.7353 3.4582 24.4077 3.281C24.2437 3.1922 24.0753 3.111 23.9025 3.0382C23.7289 2.9614 23.5477 2.8982 23.3637 2.841C23.2581 2.8086 23.1485 2.7846 23.0405 2.7582C22.9449 2.735 22.8505 2.7098 22.7537 2.6918C22.6737 2.6766 22.5917 2.667 22.5109 2.655C22.3701 2.635 22.2293 2.6166 22.0869 2.6066C22.0381 2.603 21.9889 2.6018 21.9397 2.5994C21.7949 2.5922 21.6497 2.5926 21.5045 2.5966C20.6725 2.645 19.9341 2.8198 19.2873 3.0926C19.1553 3.1522 19.0217 3.2102 18.8973 3.2806C17.6005 3.987 16.6085 5.1894 16.1505 6.5978C15.8329 7.6494 15.8057 8.785 16.0757 9.8494C16.0785 9.8594 16.0809 9.8698 16.0837 9.8798C16.0965 9.9258 16.1097 9.9718 16.1225 10.0178C16.1381 10.0726 16.1565 10.127 16.1737 10.1814C16.1893 10.2254 16.2057 10.269 16.2221 10.313H3.51011C2.37171 10.313 1.44531 11.2394 1.44531 12.3778V27.4466C1.44531 28.5854 2.37171 29.5114 3.51011 29.5114H11.5589C11.5693 29.5586 11.5825 29.6042 11.5937 29.651C12.7017 34.0106 16.5789 37.0938 21.1605 37.205C24.9617 37.1126 28.2269 34.9166 29.8617 31.7682C29.8861 31.777 29.9113 31.7834 29.9357 31.7918C34.0085 33.3322 38.6365 30.1002 38.5541 25.7394V17.6494C38.5545 16.4558 37.5805 15.4846 36.3837 15.4846Z" fill="#464EB8"/>
<path d="M30.9772 17.6928C31.0048 16.5044 30.0624 15.5136 28.8768 15.4844C28.872 15.4844 20.304 15.4844 20.304 15.4844C19.9884 15.4844 19.7324 15.7408 19.7324 16.0576V27.6956C19.7324 28.2324 19.2968 28.6688 18.7612 28.6688H12.0792C11.9076 28.6688 11.7448 28.7464 11.6364 28.8796C11.528 29.0132 11.4848 29.1884 11.5196 29.3572C12.4664 33.9816 16.4188 37.292 21.1596 37.4076C26.702 37.2716 31.106 32.642 30.9772 27.1008V17.6928Z" fill="#7B83EB"/>
<path d="M21.6296 14.1195C21.6668 14.1199 21.704 14.1171 21.7412 14.1167C21.8844 14.1147 22.0264 14.1075 22.1668 14.0955C22.2148 14.0911 22.2624 14.0871 22.3096 14.0815C22.4704 14.0635 22.63 14.0399 22.7868 14.0091C22.7964 14.0071 22.8068 14.0059 22.8164 14.0039C23.5596 13.8523 24.2604 13.5559 24.8832 13.1359C25.4596 12.7475 25.958 12.2547 26.3608 11.6899C26.4648 11.5535 26.5596 11.4111 26.648 11.2655C26.6564 11.2511 26.6656 11.2375 26.674 11.2227C26.742 11.1079 26.802 10.9887 26.8604 10.8691C26.886 10.8171 26.9124 10.7655 26.9364 10.7123C26.998 10.5743 27.0552 10.4339 27.1048 10.2911C27.1092 10.2791 27.1136 10.2675 27.1176 10.2559C27.6884 8.57267 27.4272 6.59307 26.4472 5.11347C26.188 4.73387 25.8804 4.39107 25.54 4.08387C25.4696 4.02267 25.4024 3.95827 25.3284 3.90107C25.0428 3.66587 24.7344 3.45747 24.4068 3.28027C24.2428 3.19147 24.0744 3.11027 23.9016 3.03747C23.728 2.96067 23.5468 2.89747 23.3628 2.84027C23.2572 2.80787 23.1476 2.78427 23.0396 2.75747C22.944 2.73427 22.8496 2.70907 22.7528 2.69107C22.6728 2.67587 22.5912 2.66627 22.51 2.65427C22.3692 2.63427 22.2284 2.61587 22.086 2.60587C22.0372 2.60227 21.988 2.60107 21.9392 2.59867C21.7944 2.59227 21.6492 2.59267 21.504 2.59667C20.672 2.64507 19.9336 2.81947 19.2868 3.09267C19.1548 3.15227 19.0212 3.21027 18.8968 3.28067C17.6 3.98747 16.6076 5.18987 16.15 6.59827C15.8324 7.64987 15.8052 8.78547 16.0752 9.84987C16.078 9.85987 16.0804 9.87027 16.0832 9.88027C16.096 9.92627 16.1092 9.97227 16.122 10.0183C16.1376 10.0731 16.156 10.1275 16.1732 10.1819C16.1972 10.2503 16.2224 10.3179 16.248 10.3859H16.2372C16.9472 12.3767 18.7444 13.9975 21.6296 14.1195Z" fill="#7B83EB"/>
<path d="M18.5797 10.3145H3.51011C2.37171 10.3145 1.44531 11.2409 1.44531 12.3793V27.4481C1.44531 28.5869 2.37171 29.5129 3.51011 29.5129H18.5797C19.7181 29.5129 20.6441 28.5865 20.6441 27.4481V12.3793C20.6445 11.2409 19.7185 10.3145 18.5797 10.3145Z" fill="#464EB8"/>
<path d="M14.8442 14.5098H7.13222C6.82382 14.5098 6.57422 14.7598 6.57422 15.0682V16.4738C6.57422 16.7822 6.82382 17.0322 7.13222 17.0322H9.62022V24.8622C9.62022 25.1706 9.86982 25.4206 10.1782 25.4206H11.8318C12.1402 25.4206 12.3898 25.1706 12.3898 24.8622V17.0322H14.8442C15.1526 17.0322 15.4022 16.7822 15.4022 16.4738V15.0682C15.4022 14.7598 15.1526 14.5098 14.8442 14.5098Z" fill="white"/>
</svg>
