<svg width="29" height="29" viewBox="0 0 29 29" fill="none" xmlns="http://www.w3.org/2000/svg">
<path d="M10.6175 2.29141C10.3538 1.29756 9.33477 0.742842 8.35042 0.905441L3.78731 1.7011C2.90407 1.8732 2.22616 2.57461 2.14071 3.48467C0.963411 16.0233 10.1258 27.0845 22.6644 28.2618C23.5744 28.3472 24.3898 27.8117 24.7233 26.976L26.3544 22.6407C26.6974 21.7038 26.3421 20.5994 25.4147 20.1553L20.7509 17.6772C19.9752 17.2473 18.9956 17.3594 18.373 18.015L16.0675 20.2977C12.685 18.297 10.0737 15.1445 8.73759 11.4487L11.4096 9.60844C12.1697 9.11875 12.4621 8.17712 12.1841 7.33495L10.6175 2.29141Z" fill="#3695F1"/>
</svg>
