<svg version="1.2" xmlns="http://www.w3.org/2000/svg" viewBox="0 0 2500 568" width="2500" height="568">
	<style>
		.s0 { fill: #00749a } 
		.s1 { fill: #464342 } 
	</style>
	<g>
		<path class="s0" d="m1449.95 223.87h-98.41v10.44c30.78 0 35.73 6.59 35.73 45.63v70.37c0 39.04-4.94 46.19-35.73 46.19-23.63-3.3-39.58-15.94-61.57-40.14l-25.29-27.49c34.08-6.05 52.22-27.49 52.22-51.68 0-30.23-25.83-53.32-74.21-53.32h-96.76v10.44c30.78 0 35.73 6.59 35.73 45.63v70.37c0 39.04-4.95 46.19-35.73 46.19v10.44h109.4v-10.44c-30.78 0-35.73-7.15-35.73-46.19v-19.78h9.34l61.03 76.41h159.99c78.61 0 112.71-41.77 112.71-91.81-0.01-50.03-34.1-91.26-112.72-91.26zm-230.35 89.6v-73.11h22.54c24.73 0 35.73 17.04 35.73 36.83 0 19.25-11 36.29-35.73 36.29zm232 76.42h-3.85c-19.79 0-22.54-4.94-22.54-30.23v-119.3h26.39c57.18 0 67.61 41.77 67.61 74.21 0.01 33.54-10.44 75.32-67.61 75.32zm-611.89-56.07l37.93-112.17c11-32.43 6.06-41.77-29.13-41.77v-11h103.35v11c-34.63 0-42.88 8.24-56.62 48.37l-62.68 188.03h-7.14l-56.09-172.08-57.17 172.08h-7.15l-61.02-188.02c-13.2-40.14-21.99-48.38-53.88-48.38v-11h122.05v11c-32.45 0-41.24 7.7-29.69 41.78l36.83 112.16 55.53-164.94h10.45zm186.92 80.26c-60.48 0-109.96-44.53-109.96-98.96 0-53.88 49.48-98.41 109.96-98.41 60.47 0 109.95 44.53 109.95 98.41 0 54.43-49.48 98.96-109.95 98.96zm0-180.32c-50.58 0-68.18 45.62-68.18 81.36 0 36.3 17.6 81.37 68.18 81.37 51.13 0 68.72-45.07 68.72-81.37 0-35.74-17.59-81.36-68.72-81.36z"/>
		<path class="s1" d="m1698.44 395.94v11h-125.89v-11c36.83 0 43.43-9.34 43.43-64.33v-87.95c0-54.99-6.6-63.78-43.43-63.78v-11h113.8c56.62 0 87.97 29.14 87.97 68.18 0 37.94-31.35 67.62-87.97 67.62h-31.35v26.93c0.01 54.99 6.6 64.33 43.44 64.33zm-12.09-207.27h-31.35v95.67h31.35c30.78 0 45.08-21.44 45.08-47.28 0-26.39-14.29-48.39-45.08-48.39zm465.65 166.59l-2.75 9.9c-4.94 18.14-11 24.74-50.03 24.74h-7.7c-28.58 0-33.53-6.6-33.53-45.63v-25.28c42.88 0 46.18 3.84 46.18 32.43h10.45v-81.92h-10.45c0 28.58-3.3 32.43-46.18 32.43v-61.57h30.23c39.04 0 45.08 6.6 50.03 24.74l2.76 10.45h8.79l-3.85-51.68h-161.64v10.44c30.79 0 35.74 6.6 35.74 45.63v70.37c0 35.71-4.2 44.71-28.47 46-23.07-3.53-38.91-16.11-60.58-39.95l-25.29-27.49c34.09-6.05 52.23-27.49 52.23-51.68 0-30.23-25.84-53.32-74.22-53.32h-96.76v10.44c30.79 0 35.74 6.59 35.74 45.63v70.37c0 39.04-4.95 46.19-35.74 46.19v10.44h109.41v-10.44c-30.78 0-35.74-7.15-35.74-46.19v-19.78h9.36l61.02 76.41h225.95l3.3-51.67zm-291.37-41.79v-73.11h22.54c24.74 0 35.74 17.04 35.74 36.83 0 19.25-11 36.29-35.74 36.29zm402.97 100.61c-21.99 0-41.23-11.54-49.48-18.7-2.75 2.76-7.69 11-8.79 18.7h-10.45v-75.87h11c4.4 36.29 29.68 57.73 62.12 57.73 17.59 0 31.89-9.9 31.89-26.39 0-14.29-12.64-25.29-35.19-35.73l-31.34-14.84c-21.99-10.46-38.48-28.61-38.48-52.79 0-26.39 24.74-48.92 58.83-48.92 18.14 0 33.53 6.6 42.88 14.29 2.75-2.2 5.5-8.25 7.15-14.85h10.45v64.88h-11.55c-3.85-25.84-18.14-47.28-47.28-47.28-15.39 0-29.69 8.79-29.69 22.54 0 14.3 11.54 21.99 37.94 34.08l30.23 14.85c26.39 12.64 36.83 32.99 36.83 49.48 0 34.63-30.23 58.82-67.07 58.82zm169.33 0c-21.99 0-41.24-11.54-49.48-18.7-2.75 2.76-7.69 11-8.79 18.7h-10.45v-75.87h11c4.4 36.29 29.68 57.73 62.12 57.73 17.6 0 31.89-9.9 31.89-26.39 0-14.29-12.64-25.29-35.19-35.73l-31.34-14.84c-21.99-10.46-38.48-28.61-38.48-52.79 0-26.39 24.74-48.92 58.83-48.92 18.14 0 33.53 6.6 42.88 14.29 2.75-2.2 5.5-8.25 7.14-14.85h10.45v64.88h-11.54c-3.85-25.84-18.15-47.28-47.28-47.28-15.39 0-29.69 8.79-29.69 22.54 0 14.3 11.54 21.99 37.94 34.08l30.23 14.85c26.39 12.64 36.83 32.99 36.83 49.48 0 34.63-30.24 58.82-67.07 58.82z"/>
		<g>
			<path class="s0" d="m40.31 284.2c0 96.31 55.97 179.54 137.13 218.98l-116.06-317.99q-5.2 11.65-9.15 23.78-3.95 12.13-6.61 24.61-2.65 12.48-3.99 25.17-1.32 12.69-1.32 25.45zm407.56-12.27c0-30.07-10.8-50.9-20.06-67.11-12.34-20.04-23.89-37.01-23.89-57.05 0-22.37 16.95-43.19 40.85-43.19 1.08 0 2.1 0.14 3.16 0.2-43.3-39.66-100.97-63.87-164.31-63.87-85 0-159.78 43.61-203.29 109.66 5.71 0.18 11.1 0.29 15.66 0.29 25.45 0 64.84-3.09 64.84-3.09 13.12-0.77 14.67 18.49 1.57 20.04 0 0-13.19 1.56-27.85 2.32l88.6 263.55 53.25-159.69-37.91-103.86c-13.11-0.77-25.52-2.32-25.52-2.32-13.11-0.77-11.57-20.81 1.54-20.04 0 0 40.18 3.09 64.09 3.09 25.44 0 64.84-3.09 64.84-3.09 13.12-0.77 14.67 18.49 1.56 20.04 0 0-13.21 1.55-27.85 2.32l87.93 261.55 24.26-81.1c10.53-33.65 18.53-57.83 18.53-78.65z"/>
			<path class="s0" d="m287.89 305.49l-73 212.12q8.36 2.46 16.87 4.32 8.51 1.86 17.14 3.1 8.62 1.25 17.31 1.87 8.7 0.62 17.41 0.62c28.33 0 55.5-4.9 80.8-13.79q-0.26-0.4-0.49-0.81-0.24-0.41-0.46-0.82-0.21-0.42-0.41-0.85-0.2-0.43-0.37-0.87zm209.22-138.01c1.04 7.75 1.64 16.07 1.64 25.01 0 24.69-4.61 52.45-18.5 87.15l-74.32 214.88c72.33-42.18 120.98-120.55 120.98-210.31q0.03-15.24-1.86-30.36-1.89-15.13-5.66-29.89-3.77-14.77-9.36-28.95-5.6-14.17-12.92-27.53z"/>
			<path class="s0" d="m283.62 0.59c-156.38 0-283.62 127.23-283.62 283.61 0 156.41 127.23 283.63 283.62 283.63 156.38 0 283.63-127.22 283.63-283.63 0-156.38-127.25-283.61-283.63-283.61zm0 554.24c-149.21 0-270.62-121.4-270.62-270.63 0-149.2 121.4-270.6 270.62-270.6 149.21 0 270.6 121.4 270.6 270.6 0 149.23-121.4 270.63-270.6 270.63z"/>
		</g>
	</g>
</svg>